<svg width="250" height="75" viewBox="0 0 250 75" fill="none" xmlns="http://www.w3.org/2000/svg">
<rect width="250" height="75" fill="white"/>
<path d="M31.9421 40.8221V51.9051H25V23.406H36.2454C39.5473 23.406 42.1184 24.2585 43.9588 25.9636C45.7992 27.6687 46.7194 29.7256 46.7194 32.1343C46.7194 33.7853 46.2187 35.3956 45.2173 36.9654C44.2159 38.5351 42.5785 39.6448 40.3051 40.2943L47.2877 51.9051H39.1683L32.754 40.8221H31.9421ZM31.9421 28.6836V35.5445H36.2454C37.3009 35.5445 38.1264 35.2332 38.7218 34.6107C39.3443 33.9882 39.6555 33.1763 39.6555 32.1749C39.6555 31.1465 39.3443 30.3075 38.7218 29.6579C38.0993 29.0084 37.2738 28.6836 36.2454 28.6836H31.9421Z" fill="#C9A514"/>
<path d="M71.1231 43.5421C72.5033 42.0535 73.1935 40.0643 73.1935 37.5743C73.1935 35.0844 72.5033 33.0951 71.1231 31.6066C69.7698 30.118 67.943 29.3737 65.6425 29.3737C63.369 29.3737 61.5422 30.118 60.1619 31.6066C58.8086 33.0951 58.132 35.0844 58.132 37.5743C58.132 40.0643 58.8086 42.0535 60.1619 43.5421C61.5422 45.0306 63.369 45.7749 65.6425 45.7749C67.943 45.7749 69.7698 45.0306 71.1231 43.5421ZM55.2902 48.0483C52.4755 45.2877 51.0681 41.7964 51.0681 37.5743C51.0681 33.3522 52.4755 29.8744 55.2902 27.1409C58.132 24.3803 61.5963 23 65.6831 23C69.7969 23 73.2476 24.3803 76.0353 27.1409C78.85 29.8744 80.2574 33.3522 80.2574 37.5743C80.2574 41.7964 78.85 45.2877 76.0353 48.0483C73.2206 50.8089 69.7698 52.1892 65.6831 52.1892C61.5963 52.1892 58.132 50.8089 55.2902 48.0483Z" fill="#C9A514"/>
<path d="M99.713 51.9051H92.7709V42.7301L82.9058 23.406H90.7816L96.2622 36.2752L101.702 23.406H109.578L99.713 42.7301V51.9051Z" fill="#C9A514"/>
<path d="M131.934 51.9051L130.35 47.1146H120.12L118.537 51.9051H111.148L121.054 23.3248H129.498L139.363 51.9051H131.934ZM121.866 41.837H128.605L125.235 31.6878L121.866 41.837Z" fill="#C9A514"/>
<path d="M143.384 23.406H150.326V46.6274H158.973V51.9051H143.384V23.406Z" fill="#C9A514"/>
<path d="M173.087 28.4806C172.221 28.4806 171.504 28.7106 170.936 29.1707C170.394 29.6308 170.124 30.2939 170.124 31.16C170.124 32.0261 170.381 32.7297 170.895 33.271C171.409 33.7853 172.072 34.1912 172.884 34.4889C173.723 34.7596 174.644 35.0302 175.645 35.3009C176.673 35.5445 177.688 35.8557 178.69 36.2346C179.691 36.5865 180.598 37.033 181.41 37.5743C182.249 38.1156 182.925 38.887 183.44 39.8883C183.954 40.8627 184.211 42.04 184.211 43.4203C184.211 45.829 183.223 47.8995 181.247 49.6316C179.299 51.3367 176.714 52.1892 173.493 52.1892C170.3 52.1892 167.715 51.4179 165.739 49.8752C163.791 48.3325 162.816 46.1403 162.816 43.2985H170.205C170.394 45.5719 171.558 46.7086 173.696 46.7086C174.698 46.7086 175.483 46.4515 176.051 45.9373C176.619 45.396 176.903 44.7194 176.903 43.9074C176.903 43.0955 176.646 42.4324 176.132 41.9182C175.618 41.404 174.941 40.998 174.102 40.7003C173.29 40.4026 172.37 40.1319 171.342 39.8883C170.34 39.6177 169.339 39.2929 168.337 38.914C167.336 38.5351 166.416 38.0885 165.577 37.5743C164.765 37.033 164.102 36.2752 163.588 35.3009C163.073 34.2995 162.816 33.1222 162.816 31.7689C162.816 29.1166 163.804 26.992 165.78 25.3952C167.756 23.7984 170.273 23 173.331 23C176.416 23 178.906 23.7037 180.801 25.111C182.695 26.4913 183.683 28.6836 183.764 31.6878H176.213C176.105 30.6593 175.767 29.8744 175.198 29.3331C174.657 28.7648 173.953 28.4806 173.087 28.4806Z" fill="#C9A514"/>
<path d="M197.267 40.8221V51.9051H190.325V23.406H201.571C204.873 23.406 207.444 24.2585 209.284 25.9636C211.124 27.6687 212.045 29.7256 212.045 32.1343C212.045 33.7853 211.544 35.3956 210.543 36.9654C209.541 38.5351 207.904 39.6448 205.63 40.2943L212.613 51.9051H204.494L198.079 40.8221H197.267ZM197.267 28.6836V35.5445H201.571C202.626 35.5445 203.452 35.2332 204.047 34.6107C204.67 33.9882 204.981 33.1763 204.981 32.1749C204.981 31.1465 204.67 30.3075 204.047 29.6579C203.425 29.0084 202.599 28.6836 201.571 28.6836H197.267Z" fill="#C9A514"/>
<path d="M218.058 51.9051V23.406H225V51.9051H218.058Z" fill="#C9A514"/>
</svg>
